<svg id="圖層_1" data-name="圖層 1" xmlns="http://www.w3.org/2000/svg" viewBox="0 0 203.16 93.03"><defs><style>.cls-1{fill:#fff;}</style></defs><title>logo</title><path class="cls-1" d="M196.06,80.18c0,11,7.15,16.38,11.81,18.62,0,0,46.92,17.09,53,20.66s8.44,6.53,7,9.63c-5-1.4-53.78-19.73-55.65-22.84,5,16.94,11,18.8,22.68,22.84s41.95,13.21,41.64,21.44c-5.13-2-35-12-37.29-14.45-2.18,10.1,10.41,19.27,25.79,23.15s20.2,4,24.7,14c1.71-6.37,3.21-16.82-8.39-21,0-7.46,1.86-20.2-8.23-22.06,0-6.37,3.11-19.71-20.2-27.79S203.67,84.22,196.06,80.18Z" transform="translate(-196.06 -80.18)"/><path class="cls-1" d="M399.22,80.18c0,11-7.15,16.38-11.81,18.62,0,0-46.92,17.09-53,20.66s-8.44,6.53-7,9.63c5-1.4,53.78-19.73,55.65-22.84-5,16.94-11,18.8-22.68,22.84s-41.95,13.21-41.64,21.44c5.13-2,35-12,37.29-14.45,2.18,10.1-10.41,19.27-25.79,23.15s-20.2,4-24.7,14c-1.71-6.37-3.21-16.82,8.39-21,0-7.46-1.86-20.2,8.23-22.06,0-6.37-3.11-19.71,20.2-27.79S391.6,84.22,399.22,80.18Z" transform="translate(-196.06 -80.18)"/></svg>