<svg id="圖層_1" data-name="圖層 1" xmlns="http://www.w3.org/2000/svg" viewBox="0 0 356.21 321.33"><defs><style>.cls-1{fill:none;stroke:#000;stroke-linecap:round;stroke-linejoin:round;stroke-width:2px;}</style></defs><title>mumford</title><path class="cls-1" d="M417.07,333.29V271.43L413.14,273a25.54,25.54,0,0,1-3.7,1.49c-.42.09-.39.26-.7,0s-.25-.57-.33-.78a8.13,8.13,0,0,1-.48-1.52,3.34,3.34,0,0,1,.2-2.2c.84-1.66,3.09-2.48,4.7-3.13a30.39,30.39,0,0,1,5.88-1.7A40.84,40.84,0,0,1,444.12,269c8.56,4.3,14.54,12,17.91,20.88a35.9,35.9,0,0,1-1.18,28.48A39.44,39.44,0,0,1,441,337.8a38.62,38.62,0,0,1-25.34,1.49,37.69,37.69,0,0,1-11.84-5.74c-4.48-3.27-8.26-7.56-12.17-11.45-4.42-4.4-8.65-9-13.15-13.34a7.05,7.05,0,0,0-5.9-2.05c-1.94.22-3.79.89-4.18,3-.52,2.75-.11,5.91-.11,8.7,0,1.55,0,3.11,0,4.66a10,10,0,0,1-.14,2.79c-.48,1.72-2.93,2.12-4.34,1.23s-1-3.33-1-4.76q0-19.24,0-38.5,0-9.63,0-19.25c0-1.62.42-4.1-.35-5.63-.59-1.17-2-.84-3-.61-5.74,1.25-11.42,3.12-17.05,4.78-6.07,1.79-12.09,3.72-18.08,5.74a89.38,89.38,0,0,1-35.57,4.61c-10.2-.82-20-3.28-28.38-9.32-14.68-10.57-23.11-29.28-19.5-47.24,3.48-17.31,17.6-30.75,34.82-34.17a39.64,39.64,0,0,1,42.83,20.8c8.11,15.81,4.34,36.88-11.12,46.7-7.66,4.86-17.79,7.07-26.73,5.13-8.72-1.9-16-8.24-20-16.1a32.48,32.48,0,0,1-2.54-6.72c-.13-.55-.23-1.1-.32-1.66a4.71,4.71,0,0,1-.15-1.11c.08-.55-.27-.21.27-.54a5.58,5.58,0,0,1,2.72-.4c2.15.15,2.69,2.15,3.34,3.86a35.87,35.87,0,0,0,2.92,6,24.2,24.2,0,0,0,19.54,11.81,29.17,29.17,0,0,0,23.82-10.35A30.25,30.25,0,0,0,316.66,215c-3.26-17.17-20.05-29.17-37.32-27.23-16.89,1.9-31.13,15.66-33.31,32.55a42.11,42.11,0,0,0,24.09,43.14c10.24,4.7,22.27,5.68,33.36,4.44,12.32-1.37,23.57-6.1,35.28-9.84a174.64,174.64,0,0,1,17.71-4.79,37.53,37.53,0,0,1,15.72-.29,27.14,27.14,0,0,1,19.91,17.44,28.78,28.78,0,0,1-2,23.83,23.63,23.63,0,0,1-3.85,4.93c-1.1,1.07-3.51,2.52-3.81,4.17-.27,1.41,1.75,2.81,2.6,3.64,2.29,2.26,4.55,4.54,6.82,6.82,4.32,4.34,8.61,8.72,13,13A22,22,0,0,0,417.07,333.29Zm5.82-30.79v23.11c0,2.39-.29,5.07.28,7.43a2.69,2.69,0,0,0,2.58,2.24c4.91.55,10.58-1.46,14.9-3.66a33.11,33.11,0,0,0,11.8-10.06,32.54,32.54,0,0,0,4.18-29.83A33.26,33.26,0,0,0,433.82,271c-2.6-.64-5.9-1.31-8.55-.67s-2.44,3.62-2.4,5.89C423,285,422.89,293.75,422.89,302.5ZM368.26,280c.08,0,0,12.78,0,14a33,33,0,0,0,.14,5.8c.16.84.47,1.56,1.37,1.74,1.22.25,2.74-.44,3.86-.85a23.22,23.22,0,0,0,4.77-2.41,21.85,21.85,0,0,0,6.88-7.27,22.64,22.64,0,0,0,1.18-19.63A22,22,0,0,0,372,258.69c-1-.26-2.34-.64-3.09.28s-.64,3-.64,4.27C368.23,268.81,368.26,274.39,368.26,280Zm4.49,154c15.67,5.28,36.12,5.43,48.23-7.59,5-5.36,7.71-12.36,8.73-19.54,1.19-8.42.09-16.75-4.43-24.07a36.12,36.12,0,0,0-19-15.06,35,35,0,0,0-6.21-1.53c-2.14-.33-4.35-.25-6.45-.8a8.83,8.83,0,0,1-6.84-7.47c-.56-4.19,1.67-8.66,5.76-10.12a9.28,9.28,0,0,1,10.7,3.27c1.14,1.56,1.61,4.41,3.65,5.08s3-.94,3.11-2.69c.15-3.94-3.31-7.87-6.5-9.78-7.05-4.2-17.05-1.72-20.66,5.79a16.8,16.8,0,0,0-.91,12.28,14.19,14.19,0,0,0,8.26,8.29c4,1.61,8.51,1.31,12.66,2.55a31.09,31.09,0,0,1,10.25,5.26,30.1,30.1,0,0,1,11.11,19,31.89,31.89,0,0,1-5.5,23.4c-5.06,6.79-13.25,10.39-21.5,11.38-10,1.19-19.86-1.52-29-5.4-10.12-4.28-19.76-9.6-30-13.65a62.52,62.52,0,0,0-16.7-4.2c-6-.63-12-.78-17.95-.83-3,0-6,0-9,0-2.84,0-5.74-.25-8.58-.12-1.79.07-2.92.86-2.9,2.78,0,2.14,1.48,2.63,3.36,2.66,5.88.11,11.78,0,17.66,0,5.05,0,10-.15,15,.93A39.6,39.6,0,0,1,341,427.33c11.09,13.24,14.55,32,6.1,47.51a40.62,40.62,0,0,1-18.81,17.6,37.38,37.38,0,0,1-27.34,1c-17.32-6.26-28.14-26.9-20.8-44.37,6.66-15.87,26.78-23.94,41.9-14.64a24.35,24.35,0,0,1,8.38,8.79c1.08,1.91,1.63,4.08,2.71,6a3.33,3.33,0,0,0,4.37,1.65c2.15-.84,1.44-2.49.69-4.12s-1.43-3.62-2.35-5.36a31.53,31.53,0,0,0-7.47-9.4c-12.75-10.81-33-8.56-44.93,2.44-12.2,11.26-14.2,30.48-6.66,44.89,7.72,14.76,24.66,24,41.26,21.72,16.21-2.17,30.79-13.52,36.55-28.84a45.17,45.17,0,0,0,2.09-23.85c-1.77-9.92-7.13-18.11-11.77-26.86C354.05,425.91,363.11,430.71,372.75,434ZM197.53,274.07a5.45,5.45,0,0,1,.14,1.59c.1,1.07.19,2.12.21,3.19,0,2.23,0,4.46,0,6.68,0,9.1,0,18.2,0,27.3,0,3.51,0,6.95.93,10.36a25.36,25.36,0,0,0,4.14,8.36,25.77,25.77,0,0,0,15.17,9.74,37.85,37.85,0,0,0,4.62.57,4,4,0,0,0,2.72-.33,3.44,3.44,0,0,0,.69-3.9c-.55-1-1.73-1.08-2.73-1.21-5.67-.71-11.13-2.59-15-7-4.1-4.62-5.1-10.48-5.11-16.46q0-13.67,0-27.33c0-5.49-.62-11.57.75-17,1-4,4-7,6.9-9.79,2.17-2.1,4.56-5.16,7.46-6.21,3.35-1.22,6.68.38,8.73,3.08s3.06,6,1.23,8.92a9.58,9.58,0,0,1-3.89,3.24c-1.18.65-2.59,1.55-2.84,3-.22,1.29.65,3.13,2,3.4s2.48-.76,3.48-1.35c2.7-1.6,5.06-3.32,6.41-6.26,2.52-5.48,1.39-12.88-3.41-16.73a15.36,15.36,0,0,0-9.09-3.4c-3.83-.08-7,1.71-9.7,4.32-6.43,6.27-12.78,12.63-19.11,19-3.08,3.11-6,6.42-9.25,9.38-1.25,1.14-2.6,1.77-4.15.78s-3-2.92-4.45-4.35c-6.27-6.42-12.66-12.72-19.06-19-5.38-5.29-11.92-12.08-20.13-8.6a14.23,14.23,0,0,0-8.63,16,12.52,12.52,0,0,0,4.22,7.35,15,15,0,0,0,4,2.35,5.44,5.44,0,0,0,2.22.59,18.83,18.83,0,0,0,2.55-.59c-.27-1.16-.47-2.33-.8-3.47-.28-1-.42-1.18-1.34-1.51a9.92,9.92,0,0,1-4-2.72c-2.61-2.92-1.71-6.67.4-9.62s5.72-4.53,9.26-2.93c1.89.86,3.24,2.44,4.71,3.86s3.23,3.09,4.76,4.72a16.93,16.93,0,0,1,3.62,5.14c.8,2,.69,4.16.74,6.29.22,9.56,0,19.15,0,28.72q0,14.6,0,29.2c0,4.91,0,9.82,0,14.73a23,23,0,0,1-2.32,10.17,20.12,20.12,0,0,1-16.14,11.14,20.83,20.83,0,0,1-18.75-8.43c-4.57-6-5-14.21-1.76-21a20.34,20.34,0,0,1,7.26-8.51,17.9,17.9,0,0,1,4.81-2.14c1.52-.43,3.63-.31,4.9-1.32a2.77,2.77,0,0,0,.56-3.45c-.8-1.25-2.68-1.42-4-1.21a25,25,0,0,0-9.36,3.56,26.13,26.13,0,0,0,21,47.21,27,27,0,0,0,15.42-11.43c4.3-6.85,3.73-14.67,3.73-22.43q0-29.06,0-58.11V275c0-.76-.16-1,.58-1.2,1.37-.38,3.82,2.71,4.74,3.62,3.35,3.28,6.6,6.64,9.91,9.95,1.24,1.25,2.59,1.94,4.17.86,1.83-1.25,3.32-3.31,4.88-4.88,3.23-3.25,6.54-6.41,9.8-9.63A4,4,0,0,1,197.53,274.07Zm74.39,123.05a61.27,61.27,0,0,0-2.31-8.52,56,56,0,0,0-21.73-27.7c-2.57-1.74-5.73-3-8-5.13a7.9,7.9,0,0,1-2.39-7.43,8.89,8.89,0,0,1,6.16-6.59,7.69,7.69,0,0,1,7.86,2.55c1.95,2.13,2.57,6.33,6.22,5.53,3-.65.6-6.09-.47-7.64-3.56-5.19-10.37-7.73-16.32-5.48a14.05,14.05,0,0,0-9.07,14.78,13.49,13.49,0,0,0,4,8.31c2.68,2.56,6.33,4,9.37,6.14a50,50,0,0,1,20.57,28.84,50.59,50.59,0,0,1-60.95,62.13c-22.73-5.51-39-26.82-38.56-50.16.23-13.84,6.69-26.66,13.69-38.27,6.89-11.41,19.24-25,12.65-39.21-2.47-5.32-6.87-8.5-12.47-9.87-1-.25-2.06-.44-2.77.49a3.62,3.62,0,0,0-.31,3.53c.67,1.22,2.18,1.46,3.38,1.85a11.53,11.53,0,0,1,3.57,1.88c5.2,4.07,5.94,12,3.62,17.77-1.45,3.62-3.83,6.94-5.89,10.23-2.21,3.54-4.46,7.05-6.63,10.61-7.83,12.85-14.38,26.84-14.37,42.2a55.86,55.86,0,0,0,75.07,52.68A56.8,56.8,0,0,0,273,408.07,78.71,78.71,0,0,0,271.92,397.12Zm60.82-31.66c1.14,1.18,2.18,2.49,3.26,3.72,9.31,10.6,18.52,21.29,28,31.76,7.3,8.08,15.45,16.27,26.72,18,9,1.38,18.77-2.22,22.09-11.31a19.49,19.49,0,0,0-.32-14.1,16.09,16.09,0,0,0-10.37-8.8c-5.07-1.53-11.67-.74-15.13,3.75-1.25,1.63-1.36,4.5,1.17,4.95,1.47.26,2.61-.93,3.72-1.67a12.83,12.83,0,0,1,4-1.87c5.29-1.28,10.58,2.71,12.08,7.7a12.52,12.52,0,0,1-4.63,13.4A15.16,15.16,0,0,1,389.27,413a32.84,32.84,0,0,1-7.75-4.6c-2.68-1.93-5.22-4-7.72-6.2-2.23-1.92-4.18-3.59-5-6.54-.84-3.11-.4-6.75-.43-9.95-.06-7-.07-14.08-.07-21.11,0-3.52,0-7,0-10.56,0-3,.27-6.13,0-9.12a2.84,2.84,0,0,0-4.47-2c-1.58,1-.94,4.42-.94,5.95,0,13.76,0,27.52,0,41.28a22.54,22.54,0,0,1-4-3.38c-6.75-7.63-13.56-15.22-20.25-22.9-5.81-6.66-11.17-14-18.21-19.45a39.42,39.42,0,0,0-20.79-8.34c-5-.43-10-.27-15-.27q-7.76,0-15.51,0c-1.18,0-2.66,0-3.4,1.06s-.69,3.42.39,4.31,3.2.55,4.49.56c2.61,0,5.21,0,7.82,0,5.2,0,10.41.05,15.62-.07a37.58,37.58,0,0,1,13.29,1.65c6.31,2.17,13.65,6.55,15.68,13.34,1.24,4.16.33,8.66.21,12.91-.14,5.16,0,10.32.07,15.48,0,2.58.08,5.17.08,7.75,0,1.15-.14,2.69.84,3.52a3.86,3.86,0,0,0,4.35-.06c.95-.87.77-2.4.77-3.55,0-9.82-.4-19.73.44-29.51A24.79,24.79,0,0,1,332.74,365.46ZM193.32,388.73c-9.66,10.45-11.32,27.46-3.48,39.41,9.16,14,28.95,17.95,43.1,9.42,14.6-8.79,19.15-27.9,11-42.68a48.43,48.43,0,0,0-3.56-5.29c-.64-.87-1.79-2.06-1.94-3.19-.28-2.18,4.69-2,5.91-2.38,1.58-.47,3-2.14,1.94-3.68s-3-1.72-4.84-1.73a12.73,12.73,0,0,0-9.36,3.79c-3.06,3.21-4.06,7.71-5,11.91-.94,4.43-1.47,9-3.22,13.23a14,14,0,0,1-9.21,8.82c-.88.27-1.89.31-2.74.61s-1.25,1.08-1.71,1.81c-.11.19-.82,1-.8,1.22s.88.74,1,.84c.59.52,1.25,1.32,2.08,1.37s2.36-.7,3.27-1a27.4,27.4,0,0,0,6.45-2.8,18.68,18.68,0,0,0,7.44-10.12c1.4-4.21,1.73-8.64,2.84-12.92.2-.78.41-1.55.62-2.33s.15-1,1-1.14.8.08,1.25.67.8,1,1.2,1.51a23.78,23.78,0,0,1,3.83,6.3c3.49,8.88,2.53,18.18-3.3,25.84a25.88,25.88,0,0,1-41.66-.22,26.56,26.56,0,0,1-4.34-21.91,26.28,26.28,0,0,1,15-17.49,32,32,0,0,1,11.71-2.5c1.21,0,2.59.43,3.77,0,1.52-.52,1.68-2.64,1.26-4s-1.66-1.53-2.92-1.47c-1.82.1-3.59,0-5.41,0-2.1,0-4.58.26-6.48-.83a5.79,5.79,0,0,1-2.61-4.12,6.43,6.43,0,0,1,5.89-7.78,6,6,0,0,1,5.16,2.67c.25.38.37,1,.71,1.28a4,4,0,0,0,1.42.6c1.22.41,2.48.74,3.71,1.12a14.83,14.83,0,0,0,.14-3.7,8.6,8.6,0,0,0-1.21-2.47,11.27,11.27,0,0,0-4-3.71,12,12,0,0,0-10.54-.36,11.88,11.88,0,0,0-6.91,8c-1.07,4.5,1.11,8.21,2.87,12.18C199.33,383.77,196,385.82,193.32,388.73ZM247,302.92l0,16.92c0,1.67-.5,4.3.35,5.86.71,1.33,3,1.49,4.16.59,1.33-1.06.89-3.59.88-5q0-4.14,0-8.29c0-4.89,0-9.71.47-14.57,2.58,2,5.19,4,7.74,6,1.09.88,2.13,1.8,3.24,2.64a4,4,0,0,0,2.31,1.11,4.4,4.4,0,0,0,2.37-1.17c1.18-.9,2.3-1.88,3.46-2.81,2.48-2,5-3.93,7.49-5.9.39,5.64.37,11.25.37,16.91,0,2.64,0,5.28,0,7.92,0,1.28-.17,2.84,1.21,3.46s3.6.28,4.07-1.36c.52-1.82.12-4.22.13-6.08q0-8.72,0-17.44a138.16,138.16,0,0,0-.49-15.37q-5.19,4.28-10.37,8.58c-1.6,1.31-3.19,2.64-4.8,3.94-.94.74-2.11,1.87-3.38,2s-2.4-1-3.31-1.69c-1.64-1.32-3.24-2.69-4.87-4-3.48-2.85-7-5.66-10.47-8.49C246.65,292,247,297.47,247,302.92Zm71,2.41c0-7.87,4.37-15.18,12-17.7,7.05-2.32,15.93-.69,20.95,5s5.87,14.87,2.45,21.56c-3.75,7.32-12.11,10.94-20.09,9.64C324.16,322.34,318,314.43,317.93,305.33Zm18.58,13.38a13.75,13.75,0,0,0,12.67-9,13.28,13.28,0,1,0-25.58-1.88A13.66,13.66,0,0,0,336.51,318.71Zm-39.82,73.61c-7.42,0-14.43-4.09-17.15-11.16-2.64-6.89-1-15.28,4.55-20.28a18.89,18.89,0,0,1,21.36-2.43,18.15,18.15,0,0,1,8.94,20C312.58,386.33,305.17,393.29,296.69,392.32Zm12.38-17.89a12.55,12.55,0,0,0-22.36-8.07,12.51,12.51,0,0,0-.91,14.81,13,13,0,0,0,13.73,5.43A12.28,12.28,0,0,0,309.07,374.43Zm-71-84.24c0-1,.16-2.33-.44-3.25s-2.44-1.17-3.56-.76-1.4,1.45-1.44,2.56c-.07,1.69,0,3.39,0,5.07,0,4.38,0,8.76,0,13.14,0,5,1,12.84-5.33,14.61-5.29,1.5-9.29-2.58-9.63-7.65-.26-3.76-.06-7.6-.06-11.36s0-7.77,0-11.66c0-2.15.41-4.79-2.5-4.88-3.2-.09-2.89,2.86-2.89,5.2,0,7.77-.11,15.53,0,23.3a12.9,12.9,0,0,0,8.39,12.1,12.72,12.72,0,0,0,14.65-4,13.16,13.16,0,0,0,2.79-8c.12-3.93,0-7.85,0-11.78C238.08,302.8,238.06,291.25,238.06,290.19Zm56,34.23c.15,2.08,2.1,2.94,4,2.18,1.67-.65,1.36-2.63,1.36-4.08,0-3,.11-6.1,0-9.15,0-1.67-.52-4,.68-5.42,2.11-2.47,7.58,1.17,7.42-3.75-.15-4.5-5.48-.95-7.47-3.55-1.05-1.35-.75-3.47-.71-5.06,0-1-.07-2.43.58-3.29s1.72-.84,2.62-.89c1.95-.12,4.36.48,6.19-.23,1.55-.61,3.91-2.47,2.47-4.32-1.27-1.63-4.75-.85-6.49-.83-2.69,0-5.56-.35-8.24-.07-1.73.19-2.47,1.27-2.55,3-.14,2.79.07,5.63.07,8.42,0,3,0,6,0,8.95C294.15,306.28,294,322.81,294.07,324.42Zm49.1,14.06c1.46-.09,2.42-.71,2.56-2.25s-.38-2.86-2-3.16c-2.32-.42-5.06,0-7.41,0-2.52,0-5.11-.21-7.63,0a2.4,2.4,0,0,0-2.52,2.62c0,1.58.68,2.66,2.32,2.8,2.46.2,5.1,0,7.57,0C336.06,338.41,342.54,338.52,343.17,338.48Z" transform="translate(-109.21 -180.99)"/></svg>